<?xml version="1.0" standalone="no"?>
<!DOCTYPE svg PUBLIC "-//W3C//DTD SVG 20010904//EN"
 "http://www.w3.org/TR/2001/REC-SVG-20010904/DTD/svg10.dtd">
<svg version="1.0" xmlns="http://www.w3.org/2000/svg"
 width="100.000000pt" height="100.000000pt" viewBox="0 0 100.000000 100.000000"
 preserveAspectRatio="xMidYMid meet">
<metadata>
Created by potrace 1.11, written by Peter Selinger 2001-2013
</metadata>
<g transform="translate(0.000000,100.000000) scale(0.100000,-0.100000)"
fill="#000000" stroke="none">
<path d="M480 944 c-14 -10 -39 -30 -56 -44 -19 -17 -50 -30 -77 -34 -25 -4
-60 -17 -79 -29 -45 -31 -59 -75 -53 -164 l6 -72 -61 -7 c-74 -8 -87 -24 -64
-79 l15 -37 60 6 c33 4 67 10 75 13 11 4 14 -6 14 -47 0 -57 38 -174 71 -221
27 -38 69 -67 127 -88 27 -9 66 -30 88 -47 63 -50 85 -58 156 -58 89 0 101 11
69 66 l-24 42 24 15 c42 26 93 85 123 140 28 52 29 58 23 147 -7 103 -30 163
-86 223 -17 18 -31 35 -31 37 0 2 22 13 50 25 70 30 77 41 55 89 -21 47 -37
50 -104 15 l-49 -24 -33 52 c-39 60 -79 84 -159 92 -43 5 -60 3 -80 -11z m253
-355 c55 -48 72 -96 62 -173 -12 -83 -36 -119 -100 -149 -30 -15 -73 -30 -95
-33 -55 -9 -126 13 -164 51 -56 56 -81 171 -47 223 5 8 39 20 77 28 110 22
112 23 118 42 6 19 59 50 87 51 9 1 37 -17 62 -40z"/>
<path d="M467 482 c-24 -26 -21 -49 8 -68 32 -21 58 -15 69 18 18 51 -42 89
-77 50z"/>
<path d="M625 480 c-15 -17 -16 -24 -7 -46 10 -21 18 -25 50 -22 34 3 37 6 40
37 5 52 -47 71 -83 31z"/>
</g>
</svg>
