<svg xmlns="http://www.w3.org/2000/svg" viewBox="0 0 512 512"><circle cx="256" cy="256" r="256" fill="#ffe17d"/><path d="M293.161 474.839c-141.385 0-256-114.615-256-256 0-61.227 21.521-117.411 57.376-161.463C36.863 104.316 0 175.842 0 256c0 141.385 114.615 256 256 256 80.159 0 151.685-36.864 198.626-94.538-44.053 35.855-100.237 57.377-161.465 57.377z" fill="#ffd164"/><g fill="#aa7346"><path d="M255.968 390.194c-25.476 0-48.863-6.81-64.161-18.685-4.5-3.496-5.323-9.98-1.823-14.484 3.492-4.504 9.976-5.323 14.484-1.823 11.573 8.984 30.823 14.347 51.5 14.347 20.669 0 39.927-5.363 51.508-14.351 4.524-3.484 11-2.677 14.484 1.831 3.5 4.504 2.677 10.988-1.823 14.484-15.306 11.87-38.693 18.681-64.169 18.681zM371.621 266.323a10.308 10.308 0 01-8.056-3.855c-6.556-8.165-15.435-12.661-24.984-12.661-9.548 0-18.427 4.496-24.984 12.661-3.565 4.435-10.073 5.153-14.516 1.577-4.444-3.569-5.153-10.069-1.581-14.512 10.411-12.948 25.379-20.371 41.081-20.371s30.669 7.423 41.081 20.371c3.573 4.444 2.863 10.944-1.581 14.512a10.283 10.283 0 01-6.46 2.278zM388.121 225.036c-1.548 0-3.129-.351-4.605-1.093-.298-.145-31.726-15.427-77.968-15.427-5.702 0-10.323-4.621-10.323-10.323s4.621-10.323 10.323-10.323c51.395 0 85.758 16.887 87.194 17.605a10.323 10.323 0 014.621 13.851 10.319 10.319 0 01-9.242 5.71zM115.621 208.508a10.305 10.305 0 01-7.806-3.56c-3.726-4.302-3.274-10.81 1.024-14.544 1.452-1.262 36.129-31.028 86.887-43.524 5.573-1.351 11.129 2.024 12.492 7.556 1.363 5.536-2.024 11.129-7.556 12.492-45.734 11.258-77.968 38.79-78.29 39.069a10.304 10.304 0 01-6.751 2.511z"/></g><path d="M169.29 280.774c-11.402 0-20.645-9.243-20.645-20.645v-16.516c0-11.402 9.243-20.645 20.645-20.645s20.645 9.243 20.645 20.645v16.516c0 11.402-9.243 20.645-20.645 20.645z" fill="#7d5046"/><path d="M169.29 222.968c-1.414 0-2.794.145-4.129.416v28.487c0 6.841 5.546 12.387 12.387 12.387s12.387-5.546 12.387-12.387v-8.258c0-11.402-9.242-20.645-20.645-20.645z" fill="#9c6846"/></svg>
