<svg version="1.1" id="Layer_1" xmlns="http://www.w3.org/2000/svg" x="0" y="0" viewBox="0 0 791.29 253.7" xml:space="preserve"><style>.st1{fill:#205072}</style><circle cx="139.22" cy="138.65" r="81.91" fill="#7be495"/><path class="st1" d="M340.87 162.84c-12.27 7.33-28.53 9.49-41.85 3.52-10.8-4.83-16.16-17.43-18.72-28.29-3.07-13.02-.67-26.29 4.67-38.39 2.48-5.63 5.48-10.53 10.52-14.17 3.87-2.8 8.57-4.53 13.27-5.25 10.11-1.57 21.23 0 29.88 5.74 3.3 2.19 4.72 6.43 2.62 10.01-1.91 3.27-6.71 4.81-10 2.63-6.02-3.99-14.18-5.39-21.06-3.8-3.45.8-5.87 1.9-7.91 3.96-2.34 2.35-4.38 7.19-5.75 11.08-3.25 9.25-3.97 18.22-1.4 27.16 2.16 7.5 5.15 15.17 13.01 17.12 9.12 2.25 17.27.89 25.33-3.92 8.12-4.86 15.47 7.79 7.39 12.6zM405.35 170.13c-3.78 0-4.98-.15-7.32-.01-3.36.04-4.76-1.17-5.05-4.51-.38-4.34-.07-4.46-.38-8.8.02-3.36-.34-6.54-.24-6.55 0-2.31.06-4.69.04-7.01-.02-1.93-2.26-1.08-6.02-1-7.79-.09-8.9.31-15.82.22-4.04-.54-2.97 1.49-3.85 5.86-.22 3.81-1.46 13.19-1.96 16.97-.62 4.19-1.5 4.82-3.54 4.82h-6c-4-.28-8.11.98-7.34-3.12.33-2.19 1.71-8.92 1.88-10.34 1.31-7.36 1.82-8.16 2.75-14.86.67-4.34 2-10.57 2.76-14.14 1.01-4.79 1.12-8.28 2.16-13.06 1.47-6.8 2.49-14.14 5.75-20.37 2.84-5.42 5.56-8.87 10.48-12.4 2.39-1.71 5.13-2.48 8.7-2.46 6.38-.01 9.08 1.93 12.2 5.66 3.9 4.67 6.6 8.87 7.4 14.94.7 5.29 1.54 10.57 2.1 15.88.45 4.25.47 8.54.87 12.79.51 5.49 1.2 10.96 1.8 16.44.22 2.03.44 4.06.62 6.1.33 3.72.55 7.46.95 11.17.23 5.22 1.19 7.2-2.94 7.78zm-14.5-43.21c-.37-5.31-.72-10.64-1.16-15.95-.23-2.74-.54-5.48-.98-8.2-.59-3.63-3.09-5.56-6.76-5.4-4.22.18-7.18 2.67-8.28 7.01-1.16 4.56-2.34 9.12-3.44 13.7-.52 2.16-.97 4.33-1.3 6.53-.52 4.1-1.16 5.76.3 5.7 3.93.14 12.74.02 19.75-.5 2.26 0 1.9-.55 1.87-2.89zM474.35 168.68c-.41 3.22-3.36 5.65-6.66 5.65-.28 0-.56-.01-.84-.05a6.867 6.867 0 01-4.54-2.59c-1.07-1.37-1.54-3.03-1.34-4.67.45-3.58.1-6.95-1.21-11.53l-1.36-4.61c-.02-.07-.05-.16-.07-.28-.04-.08-.07-.14-.09-.19-.89-2.05-1.17-2.55-2.73-4.29-.31-.35-.63-.68-.96-1.02-.18-.13-.34-.28-.49-.41-.97-.82-1.79-1.45-2.65-2.03-.26-.17-.51-.33-.76-.49l-.56-.36a1.07 1.07 0 01-.22-.15l-.23-.11c-1.27-.63-2.25-1.08-3.2-1.42-1.15-.42-1.15-.42-2.05-.55a25.63 25.63 0 00-3.35-.26h-.22l-2.51.04c-1.58.02-3.17.02-4.75-.03-.23 0-.43-.13-.65-.17-.18 8.03-.37 16.13-.56 23.85-.23 9.46-14.92 9.46-14.7 0 .41-16.91.81-34.9 1.22-51.81.18-7.43 0-14.97.56-22.38.5-6.47 4.77-8.37 9.76-9 .01 0 .01-.01.02-.02.07-.01.14-.01.22-.02 1.5-.18 3.06-.25 4.6-.3 5.85-.26 10.98 0 15.76.05 2.61.39 5.2.94 7.64 1.74 3.81 1.26 6.97 3.52 9.15 6.92 2.31 3.59 2.61 4.32 3.56 8.45.16.71.68 3.94.83 6.07.01 3.19.11 4.37-.01 6.74-.19 3.8-2.66 6.4-4.86 9.05-1.3 1.56-3.07 2.75-4.7 4.03-3.07 2.41-6.73 3.61-10.35 4.83-.38.13-.73.24-1.1.36.83.26 1.66.45 2.46.77 5.17 2.1 9.86 5.41 13.58 9.55 2.06 2.3 3.67 4.83 4.63 7.32.39 1 .68 2.03.96 3.06l1.18 3.99c1.71 5.78 2.24 11.1 1.59 16.27zm-18.66-61.98c.69-3.34-.64-10.17-3.25-12.36-3.71-3.11-7.65-4.64-12.51-4.04-3.14.39-4.14 1.19-4.13 4.29 0 2.58.11 5.16.17 7.74h-.06c.06 3.03.07 6.07.21 9.09.15 3.23 1.76 4.36 4.98 3.64 1.73-.39 4.82-.34 7.84-1.27 3.44-.75 5.55-4.29 6.75-7.09zM551.45 144.88c-5.22 11.38-13.88 19.68-26.17 22.82-5.51 1.41-11.3 1.89-16.97 2.02-5.34.12-10.97.44-15.94-1.64-4.15.71-8.9-1.65-8.88-7.07.1-22.95.47-45.91 1.08-68.86-1.25-3.39-.38-7.56 3.48-9.32a8.23 8.23 0 014.08-1.15c12.82-2.98 26.29-2.39 38.41 3.05 10.5 4.71 18.86 13.54 23.25 24.13 5.01 12.07 2.96 24.44-2.34 36.02zm-9.55-22.78c-.64-9.69-7.34-18.31-15.63-22.89-8.18-4.52-17.74-5.27-26.85-3.79-.5 19.71-.81 39.42-.94 59.12 1.78.87 5.09.32 7.02.32 2.63-.01 5.28-.08 7.91-.27 4.83-.36 9.89-1.23 14.18-3.59 9.18-5.06 14.98-18.7 14.31-28.9zM617.54 170.13c-3.78 0-4.98-.15-7.32-.01-3.36.04-4.76-1.17-5.05-4.51-.38-4.34-.07-4.46-.38-8.8.02-3.36-.34-6.54-.24-6.55 0-2.31.06-4.69.04-7.01-.02-1.93-2.26-1.08-6.02-1-7.79-.09-8.9.31-15.82.22-4.04-.54-2.97 1.49-3.85 5.86-.22 3.81-1.46 13.19-1.96 16.97-.62 4.19-1.5 4.82-3.54 4.82h-6c-4-.28-8.11.98-7.34-3.12.33-2.19 1.71-8.92 1.88-10.34 1.31-7.36 1.82-8.16 2.75-14.86.67-4.34 2-10.57 2.76-14.14 1.01-4.79 1.12-8.28 2.16-13.06 1.47-6.8 2.49-14.14 5.75-20.37 2.84-5.42 5.56-8.87 10.48-12.4 2.39-1.71 5.13-2.48 8.7-2.46 6.38-.01 9.08 1.93 12.2 5.66 3.9 4.67 6.6 8.87 7.4 14.94.7 5.29 1.54 10.57 2.1 15.88.45 4.25.47 8.54.87 12.79.51 5.49 1.2 10.96 1.8 16.44.22 2.03.44 4.06.62 6.1.33 3.72.55 7.46.95 11.17.24 5.22 1.19 7.2-2.94 7.78zm-14.5-43.21c-.37-5.31-.72-10.64-1.16-15.95-.23-2.74-.54-5.48-.98-8.2-.59-3.63-3.09-5.56-6.76-5.4-4.22.18-7.18 2.67-8.28 7.01-1.16 4.56-2.34 9.12-3.44 13.7-.52 2.16-.97 4.33-1.3 6.53-.52 4.1-1.16 5.76.3 5.7 3.93.14 12.73.02 19.75-.5 2.26 0 1.91-.55 1.87-2.89zM683.01 109.46c-.19 3.8-2.66 6.4-4.86 9.05-1.3 1.56-3.07 2.75-4.7 4.03-3.07 2.41-6.73 3.61-10.35 4.83-4.25 1.44-7.4 2.39-12.27 3.47-.01.03-2.72.34-5.69.51-.25 10.49-.5 21.44-.74 31.68-.23 9.46-14.92 9.46-14.69 0 .41-16.91.81-34.9 1.22-51.81.18-7.43-.01-14.97.56-22.38.5-6.47 4.77-8.37 9.76-9 0 0 .01-.01.01-.02.08-.01.14-.01.22-.02 1.5-.18 3.06-.25 4.6-.3 5.85-.26 10.98 0 15.76.05 2.61.39 5.2.94 7.64 1.74 3.81 1.26 6.97 3.52 9.15 6.92 2.31 3.59 2.61 4.32 3.56 8.45.16.71.68 3.94.83 6.07.01 3.18.11 4.36-.01 6.73zM664.5 94.34c-3.71-3.11-7.65-4.64-12.51-4.04-3.14.39-4.14 1.19-4.13 4.29.01 2.58.11 5.17.17 7.75h-.06c.06 3.03.07 6.07.21 9.09.14 3.23 1.76 4.36 4.97 3.64 1.73-.39 4.82-.34 7.84-1.27 3.46-.76 5.56-4.3 6.76-7.1.69-3.34-.64-10.17-3.25-12.36zM685.19 170.12c-7.44 0-7.43-13.01 0-13.01 7.44 0 7.43 13.01 0 13.01zM717.07 158.12c.02 1.92-.28 3.86-.58 5.77-.31 2-1.46 3.62-2.91 4.93-2.15 1.93-4.71 1.54-7.18.81-3.03-.88-4.39-3.38-5.05-6.15-1.22-5.15-1.77-10.69-1.87-17.9-.12-6.99-.48-10.17-.6-13.03-.16-3.68 0-9.29 0-12.98 0-6.49.12-4.42.1-10.92-.01-4.05.35-9.42.2-13.46-.2-5.22 1.06-10.2 3.06-13.26 2.45-2.55 5.23-3 7.29-1.96 2.54 1.28 4.41 3.27 4.86 6.12.86 5.5 1.92 11.01 2.12 16.55.35 9.19.1 18.41.1 27.61.16 9.28.36 18.57.46 27.87zM791.29 152.28c.03 2.73-.28 5.53-.57 8.24l-.26 2.54c-.21 2.11-.32 3.27-1.74 4.74-.84.87-1.34.94-4.23.97-.98.13-2.04.14-3.97.15l-1.45.01c-4.2-.04-6.24-1.72-8.01-4.21-2.28-3.22-4.22-7.07-6.1-10.78-1.3-2.57-2.65-5.23-4.07-7.62-3-5.01-7.42-12.8-10.07-18.05l-.1-.21c-.4-.78-.82-1.6-1.4-2.32-.58-.7-1.4-1.01-2.19-.84-.78.18-1.39.82-1.6 1.7-.18.71-.17 1.44-.16 2.15l.01.52c0 3.99.21 8.92.42 13.68.24 5.53.49 11.25.42 15.8-.03 2.08-.41 4.36-1.1 6.59-.83 2.7-1.43 3.85-4.08 4.36-2.31.46-5.55.79-7.96-.16-3.02-1.2-3.76-2.92-4.21-6.04-.2-3.26-.13-6.07-.04-9.62.04-1.32.07-2.73.1-4.3-.04-4.27-.08-8.01-.04-13.56.03-5.23.11-8.59.19-11.79.1-3.73.19-7.27.19-13.35 0-.68-.01-1.65-.02-2.81-.06-4.94-.16-14.14.51-17.15.15-.68.22-1.36.32-2.38.08-.84.19-1.92.38-3.34l.1-.36c1.1-4.05 1.36-5.02 5.13-5.02h.03c.55 0 1.17 0 1.83-.01 2.23-.04 4.76-.05 6.6.22 2.62.42 3.47 1.94 4.74 4.61 3.55 7.01 6.39 13.89 8.28 18.44l2.18 4.68c1.78 3.73 3.47 7.26 4.95 10.64 6.99 16.15 8.82 15.79 9.53 15.65 1.06-.22 1.06-1.65 1.06-2.2l.01-4.07c.01-4.73.02-10.62-.05-13.77-.12-5.06-.19-8.32-.26-11.14-.1-4.73-.18-8.19-.45-16.68-.06-1.91.6-3.67 2.01-5.36.57-.68 1.74-1.27 2.55-1.28 1.26-.01 2.24-.05 3.13-.08 1.72-.06 3.08-.13 5.48.08 1.31.11 2.28 1.04 2.6 2.49.28 1.26.57 2.77.56 4.21-.02 3.49-.08 6.11-.13 8.64-.06 3.14-.12 6.12-.11 10.42 0 2.22.13 3.77.26 5.4.09 1.16.18 2.39.25 3.96.04 1.01.08 5.73.11 9.53.02 2.43.03 4.54.05 5.18l.15 6.86c.09 5.23.16 8.57.24 16.04z"/><g><path class="st1" d="M191.53 238.8c-9.33-12.89-11.2-19.71-11.27-21.72 1.95-4.25 3.5-10 .09-13.37-3.55-3.51-9.38-3.3-13.78-.94-14.15 7.6-30.24 14.27-34.98 14.55a11.381 11.381 0 00-12.6 6.15c-2.44 5.02 1.95 9.54 6.51 12.76 8.96 6.32 15.68 11.92 24.45 14.56 17 5.12 29.5 1.97 30.37 1.94 3.94-.11 9.06.57 11.04-2.84 1.97-3.43 2.48-7.9.17-11.09z"/><path class="st1" d="M230.24 156.86c-.02 13.81-7.97 24.87-15.35 36.15-11.61 17.75-27.34 29.53-47.43 35.15-13.55 3.78-27.34 3.91-41.57 1.71-16.16-2.51-30.9-7.27-44.25-16.66-9.32-6.55-16.4-14.94-20.58-25.4-4.65-11.62-8.6-23.52-12.62-35.38-.96-2.83-.98-5.96-1.44-8.96.84-26.14 7.29-49.99 28.07-67.52 6.27-5.29 13.85-9.43 21.45-12.61 13.96-5.84 28.01-12.51 43.69-11.55 39.55 2.42 68.7 20.37 84.33 57.8 1.16 2.77 2.03 5.79 2.34 8.76 1.35 12.82 3.37 25.67 3.36 38.51zm-65.79-67.91c-9.76-5.8-21.79-7.57-33.28-5.66-30.94 5.15-45.19 24.68-53.32 52.61-3.31 11.38 2.77 20.78 6.14 30.73 7.04 20.78 23.15 30.31 43.53 33.58 16.72 2.68 31.25-5.01 45.83-11.52 10.89-4.87 16.82-14.41 20.08-25.09 2.41-7.88 2.5-16.47 3.62-24.75 1.16-24.62-14.05-38.89-32.6-49.9z"/><path class="st1" d="M119.52.06c25.54-.82 42.94 6.27 51.72 21.09 1.27 2.14 2.65 4.27 3.99 6.34 2.25 3.48 4.58 7.07 6.46 10.83.19.38.37.77.53 1.17.91 2.25 1.36 4.69 1.83 7.26.25 1.38.52 2.8.86 4.25l.24.99-1.29.65c-1.49.75-2.91 1.49-4.28 2.21-2.9 1.51-5.64 2.94-8.51 4.15-5.92 2.5-11.99 4.94-17.85 7.3-11.23 4.52-22.83 9.19-33.85 14.43-19.41 9.22-39.36 16.26-58.03 22.48-2.83.94-5.15 1.79-7.02 2.48-10.03 3.68-10.66 3.02-14.32-5.26-.4-.89-.84-1.89-1.34-2.99-2.84-6.26-2.58-12.92-2.87-19.68-.22-5.29-1.39-10.62-.62-15.96 1.2-8.28 2.89-16.15 7.87-22.58 5.72-7.38 15.77-12.86 34.41-14.89C94.87 22.43 102.84.6 119.52.06z"/><path class="st1" d="M227.85 42.56c-.5-1.25-.9-2.58-1.33-4-.64-2.11-2.88-3.49-3.93-5.62-.98-1.99-1.06-5.55-4.24-6.62-3.47-1.16-7.11-.5-10.21 1.08-9.38 4.77-10.01 5.93-10.89 6.44-.68.4-1.62.94-10.38 5.45-5.13 2.64-10.25 5.29-15.37 7.95-7.05 3.44-14.1 6.89-21.13 10.36-14.87 7.34-30.83 15.28-51.74 25.72l-2.13.98c-.28.13-.55.29-.79.48l-.06.03c-3.11 1.55-6.44 3.61-7.57 7.09-1.04 3.19.2 6.18 1.22 8.15 1.09 2.1 2.45 3.93 3.76 5.7.88 1.19 1.71 2.31 2.42 3.45 1.33 2.16 3.9 5 8.14 5 1.85 0 4.03-.54 6.56-1.92 1.99-1.08 4.07-2.01 6.29-2.99 1.77-.78 3.6-1.59 5.39-2.5l29.34-14.81c9.66-4.85 16.05-8.05 21.22-10.64 11.28-5.65 14.79-10.9 37.82-19.02 1.89-.67 3.53-1.89 5.2-2.84 2.11-1.2 4.1-2.33 6.15-3.28 8.59-3.99 7.61-10.26 6.26-13.64z"/><path class="st1" d="M137.27 98.35c-.15-1.35-.2-2.75-.26-4.23-.08-2.18-.16-4.43-.58-6.74-.41-2.24-1.28-5.43-4.05-7.31-2.9-1.97-6.47-1.6-9.58-.98-9.44 1.88-10.06 2.05-11.01 2.3-.69.18-1.63.43-10.43 2.23-5.16 1.06-10.31 2.13-15.47 3.2-7.05 1.28-14.09 2.55-21.14 3.86-14.95 2.78-32.73 9.05-51.84 9.79l-2.11.32c-.31.05-.61.13-.9.25-3.11.6-6.55 1.6-8.5 4.51-1.86 2.78-1.47 6.07-1.01 8.3.47 2.29 2.04 3.62 2.78 5.67.51 1.39.2 3.5.56 4.8 1.38 4.93 4.6 7.52 9.23 7.52 1.08 0 2.23-.14 3.45-.42 1.98-.46 4.03-.74 6.2-1.05 1.76-.24 3.58-1.29 5.4-1.64 6.13-1.2 12.25-1.61 18.38-2.8l11.08-4.05c9.75-1.88 16.18-1.24 21.38-2.24 11.25-2.17 16.78-3.23 37.86-7.34 1.82-.35 3.59-.8 5.31-1.24 2.13-.54 4.14-1.05 6.16-1.37 6.57-1.05 9.8-5.08 9.09-11.34z"/><g><path class="st1" d="M112.54 125.76c-3.39 0-5.04 2.75-7.35 4.89-2.53 2.36-4.12 4.28-4.12 8.01 0 3.29 1.24 4.86 3.27 7.14 2.36 2.65 5.81 5.76 9.63 5.76 3.41 0 6.52.1 8.83-2.07 2.5-2.35 4.07-7.13 4.07-10.83 0-3.04-2.49-5.84-4.26-8.05-2.36-2.96-6-4.85-10.07-4.85zM170.22 146.76c2.4-2.4 1.62-5.51 1.74-8.65.12-3.46-.12-5.94-2.75-8.58-2.32-2.32-4.31-2.56-7.36-2.74-3.55-.2-8.18.03-10.88 2.74-2.41 2.41-4.68 4.54-4.78 7.71-.11 3.44 2.16 7.92 4.78 10.54 2.15 2.15 5.9 2.37 8.71 2.68 3.76.41 7.66-.82 10.54-3.7z"/></g></g></svg>
